<svg xmlns:xlink="http://www.w3.org/1999/xlink" width="112" height="37" viewBox="0 0 73 24" fill="none" xmlns="http://www.w3.org/2000/svg">
<path d="M33.2089 6.12335V13.9848L38.4977 6.12335H41.2672V13.9848L46.5275 6.12335H49.297V18.7219H46.5275V10.8604L41.2654 18.7219H38.4977V10.8604L33.2089 18.7219H30.4395V6.12335H33.2089Z" fill="#1C212E"></path>
<path d="M24.4194 1.83951C24.4194 0.831702 25.2753 9.47751e-06 26.2823 9.47751e-06C26.5239 -0.000767876 26.7633 0.0462815 26.9866 0.13845C27.21 0.230618 27.4129 0.366086 27.5838 0.537054C27.7546 0.708023 27.8899 0.911117 27.982 1.13465C28.0741 1.35818 28.1212 1.59773 28.1204 1.83951C28.1204 2.87268 27.3147 3.70392 26.2832 3.70392C25.79 3.70107 25.3177 3.50375 24.9688 3.15475C24.6199 2.80575 24.4225 2.33319 24.4194 1.83951ZM24.8976 6.12384H27.6671V18.7219H24.8976V6.12384Z" fill="#1C212E"></path>
<path d="M16.2266 6.12378H18.9956V18.7219H16.2266V6.12378ZM21.7149 6.12378H23.3009V8.84477H19.0209L21.7149 6.12378Z" fill="#1C212E"></path>
<path d="M65.7588 6.12378H68.5283V18.7219H65.7588V6.12378ZM71.2475 6.12378H72.8336V8.84477H68.5536L71.2475 6.12378Z" fill="#1C212E"></path>
<path d="M7.82213 5.90784C6.84706 5.9083 5.88498 6.1317 5.00931 6.56098C4.13365 6.99025 3.36755 7.61407 2.76948 8.3848V6.12334H0V24H2.76948V16.4559C3.36755 17.2266 4.13365 17.8504 5.00931 18.2797C5.88498 18.709 6.84706 18.9324 7.82213 18.9329C11.377 18.9329 14.2591 16.0172 14.2591 12.4206C14.2591 8.82397 11.377 5.90784 7.82213 5.90784ZM7.82213 16.4346C5.6507 16.4346 3.88098 14.6336 3.88098 12.4206C3.88098 10.2076 5.64889 8.40654 7.82213 8.40654C9.99538 8.40654 11.7619 10.2071 11.7619 12.4206C11.7619 14.634 9.99492 16.4346 7.82213 16.4346Z" fill="#1C212E"></path>
<path d="M61.6504 12.422C61.6504 14.6354 59.8825 16.4374 57.7102 16.4374C57.0173 16.4379 56.3371 16.2516 55.741 15.8981L61.156 10.4788L62.9714 8.66555C62.5603 8.08029 62.0559 7.56653 61.4785 7.14478C60.3855 6.34199 59.0646 5.90987 57.7088 5.9115C54.1531 5.9115 51.2705 8.82718 51.2705 12.4233C51.2681 13.4514 51.5084 14.4655 51.9718 15.383C52.4353 16.3006 53.1087 17.0956 53.9373 17.7032C55.031 18.5063 56.3524 18.9386 57.7088 18.937C61.2641 18.937 64.1453 16.0208 64.1453 12.4233L61.6504 12.422ZM53.7686 12.422C53.7686 10.2085 55.5365 8.40839 57.7102 8.40839C58.4024 8.40819 59.0819 8.59428 59.6776 8.94716L54.2626 14.3665C53.9376 13.77 53.7677 13.1014 53.7686 12.422Z" fill="#1C212E"></path>
</svg>